{"title":"Deception.2008.720p.BluRay.x264-LXGZ","uid":5901479,"size":2684404758,"categoryP":"video","categoryS":"hd___movies","magnet":"?xt=urn:btih:8c6673a0c8560359555c957f309197a50a946431&amp;dn=Deception.2008.720p.BluRay.x264-LXGZ&amp;tr=udp%3A%2F%2Ftracker.openbittorrent.com%3A80&amp;tr=udp%3A%2F%2Fopen.demonii.com%3A1337&amp;tr=udp%3A%2F%2Ftracker.coppersurfer.tk%3A6969&amp;tr=udp%3A%2F%2Fexodus.desync.com%3A6969","seeders":1,"leechers":5,"uploader":"Aciaeiig","files":-1,"time":1287690482,"description":"Deception.2008.720p.BluRay.x264-LXGZ (aKa) Aciaeiig\n\n\n\nSummary:\n\nAn accountant is introduced to a mysterious sex club known as The List by his lawyer friend. But in this new world, he soon becomes the prime suspect in a woman's disappearance and a multi-million dollar heist.\n\n\n\n\nCast:\n\nHugh Jackman - Wyatt Bose\nEwan McGregor - Jonathan McQuarry\nMichelle Williams - S\n_andmore_\n\n\n\n*INFO*\n****************************************************************\n\n\nVideo\nID                               : 1\n*Source*                         : Blu-Ray\nFormat                           : AVC\nFormat/Info                      : Advanced Video Codec\nFormat profile                   : &lt;a class=&quot;__cf_email__&quot; href=&quot;/cdn-cgi/l/email-protection&quot; data-cfemail=&quot;5f173638371f136c716e&quot;&gt;[email&amp;#160;protected]&lt;/a&gt;&lt;script cf-hash='f9e31' type=&quot;text/javascript&quot;&gt;\n/* &lt;![CDATA[ */!function(){try{var t=&quot;currentScript&quot;in document?document.currentScript:function(){for(var t=document.getElementsByTagName(&quot;script&quot;),e=t.length;e--;)if(t[e].getAttribute(&quot;cf-hash&quot;))return t[e]}();if(t&amp;&amp;t.previousSibling){var e,r,n,i,c=t.previousSibling,a=c.getAttribute(&quot;data-cfemail&quot;);if(a){for(e=&quot;&quot;,r=parseInt(a.substr(0,2),16),n=2;a.length-n;n+=2)i=parseInt(a.substr(n,2),16)^r,e+=String.fromCharCode(i);e=document.createTextNode(e),c.parentNode.replaceChild(e,c)}}}catch(u){}}();/* ]]&gt; */&lt;/script&gt;\nFormat settings, CABAC           : Yes\nFormat settings, ReFrames        : 4 frames\nFormat settings, GOP             : M=4, N=32\nMuxing mode                      : Container profile=&lt;a class=&quot;__cf_email__&quot; href=&quot;/cdn-cgi/l/email-protection&quot; data-cfemail=&quot;53063d383d3c243d13607d62&quot;&gt;[email&amp;#160;protected]&lt;/a&gt;&lt;script cf-hash='f9e31' type=&quot;text/javascript&quot;&gt;\n/* &lt;![CDATA[ */!function(){try{var t=&quot;currentScript&quot;in document?document.currentScript:function(){for(var t=document.getElementsByTagName(&quot;script&quot;),e=t.length;e--;)if(t[e].getAttribute(&quot;cf-hash&quot;))return t[e]}();if(t&amp;&amp;t.previousSibling){var e,r,n,i,c=t.previousSibling,a=c.getAttribute(&quot;data-cfemail&quot;);if(a){for(e=&quot;&quot;,r=parseInt(a.substr(0,2),16),n=2;a.length-n;n+=2)i=parseInt(a.substr(n,2),16)^r,e+=String.fromCharCode(i);e=document.createTextNode(e),c.parentNode.replaceChild(e,c)}}}catch(u){}}();/* ]]&gt; */&lt;/script&gt;\nCodec ID                         : V_MPEG4/ISO/AVC\nDuration                         : 1h 47mn\nBit rate                         : 2 898 Kbps\nNominal bit rate                 : 3 049 Kbps\nWidth                            : 1 280 pixels\nHeight                           : 720 pixels\nDisplay aspect ratio             : 16:9\nFrame rate                       : 23.976 fps\nColor space                      : YUV\nChroma subsampling               : 4:2:0\nBit depth                        : 8 bits\nScan type                        : Progressive\nBits/(Pixel*Frame)               : 0.131\nStream size                      : 2.18 GiB (88%)\nWriting library                  : x264 core 104 r1703 cd21d05\n\n\nAudio\nID                               : 2\nFormat                           : AC-3\nFormat/Info                      : Audio Coding 3\nMode extension                   : CM (complete main)\nMuxing mode                      : Header stripping\nCodec ID                         : A_AC3\nDuration                         : 1h 47mn\nBit rate mode                    : Constant\nBit rate                         : 320 Kbps\nChannel(s)                       : 6 channels\nChannel positions                : Front: L C R, Side: L R, LFE\nSampling rate                    : 48.0 KHz\nBit depth                        : 16 bits\nStream size                      : 247 MiB (10%)\nLanguage                         : English\n\nText\nID                               : 3\nFormat                           : SRT\nCodec ID                         : S_TEXT/UTF8\nCodec ID/Info                    : UTF-8 Plain Text\nLanguage                         : English\n\n\n****************************************************************\n &lt;a href=&quot;\nhttp://www.imdb.com/title/tt0800240/&quot; rel=&quot;nofollow&quot; target=&quot;_NEW&quot;&gt;\nhttp://www.imdb.com/title/tt0800240/&lt;/a&gt;\n\n\nScreenshots:\n\n &lt;a href=&quot;\nhttp://image.bayimg.com/paacaaada.jpg&quot; rel=&quot;nofollow&quot; target=&quot;_NEW&quot;&gt;\nhttp://image.bayimg.com/paacaaada.jpg&lt;/a&gt; &lt;a href=&quot;\nhttp://image.bayimg.com/paaccaada.jpg&quot; rel=&quot;nofollow&quot; target=&quot;_NEW&quot;&gt;\nhttp://image.bayimg.com/paaccaada.jpg&lt;/a&gt; &lt;a href=&quot;\nhttp://image.bayimg.com/paacbaada.jpg&quot; rel=&quot;nofollow&quot; target=&quot;_NEW&quot;&gt;\nhttp://image.bayimg.com/paacbaada.jpg&lt;/a&gt;\n\nThumbnails:\n &lt;a href=&quot;\nhttp://image.bayimg.com/paacdaada.jpg&quot; rel=&quot;nofollow&quot; target=&quot;_NEW&quot;&gt;\nhttp://image.bayimg.com/paacdaada.jpg&lt;/a&gt;","torrent":{"xt":"urn:btih:8c6673a0c8560359555c957f309197a50a946431","amp;dn":"Deception.2008.720p.BluRay.x264-LXGZ","amp;tr":["udp%3A%2F%2Ftracker.openbittorrent.com%3A80","udp%3A%2F%2Fopen.demonii.com%3A1337","udp%3A%2F%2Ftracker.coppersurfer.tk%3A6969","udp%3A%2F%2Fexodus.desync.com%3A6969"],"infoHash":"8c6673a0c8560359555c957f309197a50a946431","infoHashBuffer":{"type":"Buffer","data":[140,102,115,160,200,86,3,89,85,92,149,127,48,145,151,165,10,148,100,49]},"announce":[],"urlList":[]}}